# xmcd
#
# Track frame offsets:
#	150
#	17093
#	30956
#	47352
#	64673
#	79021
#	94260
#	112768
#	126556
#	143014
#	158442
#	175499
#	197178
#	213535
#
# Disc length: 3060 seconds
#
# Revision: 1
# Processed by: cddbd v1.5.2PL0 Copyright (c) Steve Scherf et al.
# Submitted via: audiograbber 1.83.01
#
DISCID=b30bf20e
DTITLE=Robin - Yhdessä
DYEAR=2015
DGENRE=Pop
TTITLE0=Yö Kuuluu Meille (Feat. Santa Cruz, Nikke Ankara, Brädi, Jussi69)
TTITLE1=Samettia (Feat. Vilma Alina)
TTITLE2=Miten Eskimot Suutelee? (Feat. Sanni)
TTITLE3=Milloin Nään Sut Uudestaan? (Feat. Kasmir)
TTITLE4=Ylitit Rajan
TTITLE5=Kultakehykset (Feat. Evelina)
TTITLE6=Onnellinen (Feat. Club For Five)
TTITLE7=Lentoon (Feat. Tommy Lindgren)
TTITLE8=Vahva (Elastinen Feat. Robin
TTITLE9=Silmät Kii (JVG Feat. Robin)
TTITLE10=Se Tunne Kun (Feat. Mikael Gabriel)
TTITLE11=Lapin Kesä (Feat. Vesa-Matti Loiri)
TTITLE12=Pystyt Mihin Vaan (Feat. Steve'n'Seagulls)
TTITLE13=Erilaiset (Feat. Iiro Rantala)
EXTD=TR.
EXTT0=
EXTT1=
EXTT2=
EXTT3=
EXTT4=
EXTT5=
EXTT6=
EXTT7=
EXTT8=
EXTT9=
EXTT10=
EXTT11=
EXTT12=
EXTT13=
PLAYORDER=
